<svg width="29" height="12" viewBox="0 0 29 12" fill="none" xmlns="http://www.w3.org/2000/svg">
<g filter="url(#filter0_dd_24_5)">
<path d="M0 2.96296V0.00410947H2.1476V0.645194H0.507028V1.16299H1.82788V1.80408H0.507028V2.32188H2.1476V2.96296H0Z" fill="black"/>
<path d="M3.26702 2.96296C3.1809 2.96296 3.10124 2.93557 3.02804 2.88077C2.95484 2.82598 2.89671 2.75201 2.85365 2.65886C2.81059 2.56571 2.78906 2.46434 2.78906 2.35475V0.612318C2.78906 0.499991 2.81059 0.398623 2.85365 0.308214C2.89671 0.215065 2.95484 0.141093 3.02804 0.0862998C3.10124 0.0315062 3.1809 0.00410947 3.26702 0.00410947H4.63309C4.72136 0.00410947 4.80102 0.0315062 4.87207 0.0862998C4.94527 0.141093 5.0034 0.215065 5.04646 0.308214C5.09167 0.398623 5.11428 0.499991 5.11428 0.612318V0.891766H4.60725V0.645194H3.28963V2.32188H4.60725V1.87805H4.10345V1.23697H5.11428V2.35475C5.11428 2.46434 5.09167 2.56571 5.04646 2.65886C5.0034 2.75201 4.94527 2.82598 4.87207 2.88077C4.80102 2.93557 4.72136 2.96296 4.63309 2.96296H3.26702Z" fill="black"/>
<path d="M5.79272 2.96296V0.00410947H6.30944L7.61092 1.97668V0.00410947H8.11795V2.96296H7.60123L6.29329 0.982175V2.96296H5.79272Z" fill="black"/>
<path d="M8.80916 2.96296V0.612318C8.80916 0.499991 8.83069 0.398623 8.87375 0.308214C8.91681 0.215065 8.97494 0.141093 9.04814 0.0862998C9.12134 0.0315062 9.201 0.00410947 9.28712 0.00410947H10.6532C10.7415 0.00410947 10.8211 0.0315062 10.8922 0.0862998C10.9654 0.141093 11.0235 0.215065 11.0666 0.308214C11.1118 0.398623 11.1344 0.499991 11.1344 0.612318V2.96296H10.6274V2.00955H9.30972V2.96296H8.80916ZM9.30972 1.36847H10.6274V0.645194H9.30972V1.36847Z" fill="black"/>
<path d="M11.8285 2.96296V0H12.3291V2.32188H14.1537V2.96296H11.8285Z" fill="black"/>
<path d="M14.6714 2.96296V0.00410947H16.5154C16.6037 0.00410947 16.6834 0.0315062 16.7544 0.0862998C16.8276 0.141093 16.8858 0.215065 16.9288 0.308214C16.974 0.398623 16.9966 0.499991 16.9966 0.612318V2.35475C16.9966 2.46434 16.974 2.56571 16.9288 2.65886C16.8858 2.75201 16.8276 2.82598 16.7544 2.88077C16.6834 2.93557 16.6037 2.96296 16.5154 2.96296H14.6714ZM15.1688 2.32188H16.4896V0.645194H15.1688V2.32188Z" fill="black"/>
<path d="M18.1527 2.96296C18.0666 2.96296 17.987 2.93557 17.9138 2.88077C17.8406 2.82598 17.7824 2.75201 17.7394 2.65886C17.6963 2.56571 17.6748 2.46434 17.6748 2.35475V0.612318C17.6748 0.499991 17.6963 0.398623 17.7394 0.308214C17.7824 0.215065 17.8406 0.141093 17.9138 0.0862998C17.987 0.0315062 18.0666 0.00410947 18.1527 0.00410947H19.522C19.6082 0.00410947 19.6867 0.0315062 19.7578 0.0862998C19.831 0.141093 19.8891 0.215065 19.9322 0.308214C19.9774 0.398623 20 0.499991 20 0.612318V2.35475C20 2.46434 19.9774 2.56571 19.9322 2.65886C19.8891 2.75201 19.831 2.82598 19.7578 2.88077C19.6867 2.93557 19.6082 2.96296 19.522 2.96296H18.1527ZM18.1753 2.32188H19.493V0.645194H18.1753V2.32188Z" fill="black"/>
</g>
<defs>
<filter id="filter0_dd_24_5" x="0" y="0" width="29" height="11.963" filterUnits="userSpaceOnUse" color-interpolation-filters="sRGB">
<feFlood flood-opacity="0" result="BackgroundImageFix"/>
<feColorMatrix in="SourceAlpha" type="matrix" values="0 0 0 0 0 0 0 0 0 0 0 0 0 0 0 0 0 0 127 0" result="hardAlpha"/>
<feOffset dx="8" dy="8"/>
<feGaussianBlur stdDeviation="0.5"/>
<feComposite in2="hardAlpha" operator="out"/>
<feColorMatrix type="matrix" values="0 0 0 0 0 0 0 0 0 0.180392 0 0 0 0 0.678431 0 0 0 1 0"/>
<feBlend mode="normal" in2="BackgroundImageFix" result="effect1_dropShadow_24_5"/>
<feColorMatrix in="SourceAlpha" type="matrix" values="0 0 0 0 0 0 0 0 0 0 0 0 0 0 0 0 0 0 127 0" result="hardAlpha"/>
<feOffset dx="4" dy="4"/>
<feGaussianBlur stdDeviation="0.25"/>
<feComposite in2="hardAlpha" operator="out"/>
<feColorMatrix type="matrix" values="0 0 0 0 0.262745 0 0 0 0 0.376471 0 0 0 0 0.882353 0 0 0 1 0"/>
<feBlend mode="normal" in2="effect1_dropShadow_24_5" result="effect2_dropShadow_24_5"/>
<feBlend mode="normal" in="SourceGraphic" in2="effect2_dropShadow_24_5" result="shape"/>
</filter>
</defs>
</svg>
