<svg width="71" height="20" viewBox="0 0 71 20" fill="none" xmlns="http://www.w3.org/2000/svg">
<path d="M29.5251 20C28.4268 20 27.5061 19.6806 26.7631 19.0417C26.0201 18.4028 25.6486 17.6111 25.6486 16.6667V13.3333H31.4633V15H39.2163V11.6667H29.5251C28.4268 11.6667 27.5061 11.3472 26.7631 10.7083C26.0201 10.0694 25.6486 9.27778 25.6486 8.33333V3.33333C25.6486 2.38889 26.0201 1.59722 26.7631 0.958333C27.5061 0.319444 28.4268 0 29.5251 0H41.1546C42.2529 0 43.1736 0.319444 43.9166 0.958333C44.6596 1.59722 45.0311 2.38889 45.0311 3.33333V6.66667H39.2163V5H31.4633V8.33333H41.1546C42.2529 8.33333 43.1736 8.65278 43.9166 9.29167C44.6596 9.93056 45.0311 10.7222 45.0311 11.6667V16.6667C45.0311 17.6111 44.6596 18.4028 43.9166 19.0417C43.1736 19.6806 42.2529 20 41.1546 20H29.5251ZM54.7223 20C53.624 20 52.7033 19.6806 51.9603 19.0417C51.2173 18.4028 50.8458 17.6111 50.8458 16.6667V13.3333H56.6605V15H64.4135V11.6667H54.7223C53.624 11.6667 52.7033 11.3472 51.9603 10.7083C51.2173 10.0694 50.8458 9.27778 50.8458 8.33333V3.33333C50.8458 2.38889 51.2173 1.59722 51.9603 0.958333C52.7033 0.319444 53.624 0 54.7223 0H66.3518C67.4501 0 68.3708 0.319444 69.1138 0.958333C69.8568 1.59722 70.2283 2.38889 70.2283 3.33333V6.66667H64.4135V5H56.6605V8.33333H66.3518C67.4501 8.33333 68.3708 8.65278 69.1138 9.29167C69.8568 9.93056 70.2283 10.7222 70.2283 11.6667V16.6667C70.2283 17.6111 69.8568 18.4028 69.1138 19.0417C68.3708 19.6806 67.4501 20 66.3518 20H54.7223ZM4.32791 20C3.22957 20 2.3089 19.6806 1.56591 19.0417C0.822913 18.4028 0.451416 17.6111 0.451416 16.6667V3.33333C0.451416 2.38889 0.822913 1.59722 1.56591 0.958333C2.3089 0.319444 3.22957 0 4.32791 0H15.9574C17.0557 0 17.9764 0.319444 18.7194 0.958333C19.4624 1.59722 19.8339 2.38889 19.8339 3.33333V6.66667H14.0191V5H6.26615V15H14.0191V13.3333H19.8339V16.6667C19.8339 17.6111 19.4624 18.4028 18.7194 19.0417C17.9764 19.6806 17.0557 20 15.9574 20H4.32791Z" fill="#118DE7"/>
</svg>
