<svg width="25" height="25" viewBox="0 0 25 25" fill="none" xmlns="http://www.w3.org/2000/svg">
<path d="M2.5 25C1.8125 25 1.22396 24.694 0.734375 24.082C0.244792 23.4701 0 22.7344 0 21.875V3.125C0 2.26562 0.244792 1.52995 0.734375 0.917969C1.22396 0.30599 1.8125 0 2.5 0H22.5C23.1875 0 23.776 0.30599 24.2656 0.917969C24.7552 1.52995 25 2.26562 25 3.125V21.875C25 22.7344 24.7552 23.4701 24.2656 24.082C23.776 24.694 23.1875 25 22.5 25H2.5ZM12.5 14.0625L2.5 6.25V21.875H22.5V6.25L12.5 14.0625ZM12.5 10.9375L22.5 3.125C22.5 3.125 10.3105 3 2.5 3C6.40524 6.05097 12.5 10.9375 12.5 10.9375ZM2.5 6.25C2.5 6.25 2.5 4.22039 2.5 3C2.5 10.3223 2.5 21.875 2.5 21.875V6.25Z" fill="white"/>
</svg>
