<svg width="330" height="522" viewBox="0 0 330 522" fill="none" xmlns="http://www.w3.org/2000/svg">
<g filter="url(#filter0_d_24_7)">
<path d="M20.8 72V0H86.9V12.1H32.9V30H76.4V42H32.9V59.9H86.9V72H20.8Z" fill="#4B6BFA"/>
<path d="M106.163 72V69.2L133.963 36L106.163 2.8V0H119.563L141.963 26.5L164.263 0H177.663V2.8L149.763 36L177.663 69.1V72H164.263L141.863 45.5L119.563 72H106.163Z" fill="#4B6BFA"/>
<path d="M198.315 72V0.0999987H256.815C259.282 0.0999987 261.515 0.733332 263.515 2C265.582 3.2 267.215 4.83333 268.415 6.9C269.682 8.9 270.315 11.1333 270.315 13.6V33.4C270.315 35.8 269.682 38.0333 268.415 40.1C267.215 42.1667 265.582 43.8 263.515 45C261.515 46.2 259.282 46.8 256.815 46.8L210.315 46.9V72H198.315ZM212.115 34.7H256.415C256.882 34.7 257.282 34.5333 257.615 34.2C258.015 33.8667 258.215 33.4333 258.215 32.9V13.9C258.215 13.4333 258.015 13.0333 257.615 12.7C257.282 12.3 256.882 12.1 256.415 12.1H212.115C211.648 12.1 211.215 12.3 210.815 12.7C210.482 13.0333 210.315 13.4333 210.315 13.9V32.9C210.315 33.4333 210.482 33.8667 210.815 34.2C211.215 34.5333 211.648 34.7 212.115 34.7Z" fill="#4B6BFA"/>
<path d="M20.8 272V200H86.9V212.1H32.9V230H76.4V242H32.9V259.9H86.9V272H20.8Z" fill="#4B6BFA"/>
<path d="M165.363 272L143.263 245.6H158.963L178.863 269.2V272H165.363ZM107.163 272V200.1H165.663C168.129 200.1 170.363 200.733 172.363 202C174.429 203.2 176.063 204.833 177.263 206.9C178.529 208.9 179.163 211.133 179.163 213.6V233.4C179.163 235.8 178.529 238.033 177.263 240.1C176.063 242.167 174.429 243.8 172.363 245C170.363 246.2 168.129 246.8 165.663 246.8L119.163 246.9V272H107.163ZM120.963 234.7H165.263C165.729 234.7 166.129 234.533 166.463 234.2C166.863 233.867 167.063 233.433 167.063 232.9V213.9C167.063 213.433 166.863 213.033 166.463 212.7C166.129 212.3 165.729 212.1 165.263 212.1H120.963C120.496 212.1 120.063 212.3 119.663 212.7C119.329 213.033 119.163 213.433 119.163 213.9V232.9C119.163 233.433 119.329 233.867 119.663 234.2C120.063 234.533 120.496 234.7 120.963 234.7Z" fill="#4B6BFA"/>
<path d="M198.882 272V200H210.782V272H198.882Z" fill="#4B6BFA"/>
<path d="M231.269 272V200H297.369V212.1H243.369V230H286.869V242H243.369V259.9H297.369V272H231.269ZM251.269 192.6L260.869 176.4H269.869L279.569 192.6H269.569L265.269 185.3L261.169 192.6H251.269Z" fill="#4B6BFA"/>
<path d="M20.6 472V400H34.3L80.5 455V400H92.6V472H78.9L32.6 416.9V472H20.6Z" fill="#4B6BFA"/>
<path d="M127.303 472C124.836 472 122.57 471.4 120.503 470.2C118.436 469 116.803 467.367 115.603 465.3C114.403 463.233 113.803 460.967 113.803 458.5V413.5C113.803 411.033 114.403 408.767 115.603 406.7C116.803 404.633 118.436 403 120.503 401.8C122.57 400.6 124.836 400 127.303 400H185.603V412.1H129.403C128.336 412.1 127.47 412.433 126.803 413.1C126.136 413.7 125.803 414.533 125.803 415.6V456.4C125.803 457.467 126.136 458.333 126.803 459C127.47 459.6 128.336 459.9 129.403 459.9H185.603V472H127.303Z" fill="#4B6BFA"/>
<path d="M205.23 472V400H217.13V472H205.23Z" fill="#4B6BFA"/>
<path d="M237.616 472V413.5C237.616 411.033 238.216 408.767 239.416 406.7C240.616 404.633 242.25 403 244.316 401.8C246.383 400.6 248.65 400 251.116 400H296.116C298.583 400 300.816 400.6 302.816 401.8C304.883 403 306.516 404.633 307.716 406.7C308.983 408.767 309.616 411.033 309.616 413.5V472H297.516V447.3H249.616V472H237.616ZM249.616 435.3H297.516V413.9C297.516 413.367 297.316 412.933 296.916 412.6C296.583 412.267 296.183 412.1 295.716 412.1H251.416C250.95 412.1 250.516 412.267 250.116 412.6C249.783 412.933 249.616 413.367 249.616 413.9V435.3Z" fill="#4B6BFA"/>
</g>
<defs>
<filter id="filter0_d_24_7" x="0.600006" y="0" width="329.016" height="522" filterUnits="userSpaceOnUse" color-interpolation-filters="sRGB">
<feFlood flood-opacity="0" result="BackgroundImageFix"/>
<feColorMatrix in="SourceAlpha" type="matrix" values="0 0 0 0 0 0 0 0 0 0 0 0 0 0 0 0 0 0 127 0" result="hardAlpha"/>
<feOffset dy="30"/>
<feGaussianBlur stdDeviation="10"/>
<feComposite in2="hardAlpha" operator="out"/>
<feColorMatrix type="matrix" values="0 0 0 0 0 0 0 0 0 0.180392 0 0 0 0 0.678431 0 0 0 1 0"/>
<feBlend mode="normal" in2="BackgroundImageFix" result="effect1_dropShadow_24_7"/>
<feBlend mode="normal" in="SourceGraphic" in2="effect1_dropShadow_24_7" result="shape"/>
</filter>
</defs>
</svg>
