<svg width="948" height="163" viewBox="0 0 948 163" fill="none" xmlns="http://www.w3.org/2000/svg">
<g filter="url(#filter0_d_24_8)">
<path d="M276.001 99V27H342.301V40.3H289.301V56.3H331.901V69.7H289.301V99H276.001Z" fill="#4B6BFA"/>
<path d="M361.767 99C359.233 99 356.9 98.3666 354.767 97.1C352.7 95.8333 351.033 94.1666 349.767 92.1C348.5 89.9666 347.867 87.6333 347.867 85.1V40.9C347.867 38.3666 348.5 36.0666 349.767 34C351.033 31.8666 352.7 30.1666 354.767 28.9C356.9 27.6333 359.233 27 361.767 27H405.967C408.5 27 410.8 27.6333 412.867 28.9C415 30.1666 416.7 31.8666 417.967 34C419.233 36.0666 419.867 38.3666 419.867 40.9V85.1C419.867 87.6333 419.233 89.9666 417.967 92.1C416.7 94.1666 415 95.8333 412.867 97.1C410.8 98.3666 408.5 99 405.967 99H361.767ZM362.267 85.7H405.267C405.6 85.7 405.9 85.6 406.167 85.4C406.434 85.1333 406.567 84.8333 406.567 84.5V41.5C406.567 41.1666 406.434 40.9 406.167 40.7C405.9 40.4333 405.6 40.3 405.267 40.3H362.267C361.933 40.3 361.633 40.4333 361.367 40.7C361.167 40.9 361.067 41.1666 361.067 41.5V84.5C361.067 84.8333 361.167 85.1333 361.367 85.4C361.633 85.6 361.933 85.7 362.267 85.7Z" fill="#4B6BFA"/>
<path d="M488.279 99L466.579 73.1H483.879L502.679 95.3V99H488.279ZM430.879 99V27.1H488.879C491.413 27.1 493.746 27.7333 495.879 29C498.013 30.2666 499.713 31.9666 500.979 34.1C502.246 36.1666 502.879 38.4666 502.879 41V60.4C502.879 62.9333 502.246 65.2666 500.979 67.4C499.713 69.5333 498.013 71.2333 495.879 72.5C493.746 73.7 491.413 74.3 488.879 74.3L444.079 74.4V99H430.879ZM445.279 61H488.279C488.613 61 488.913 60.9 489.179 60.7C489.446 60.5 489.579 60.2333 489.579 59.9V41.5C489.579 41.1666 489.446 40.9 489.179 40.7C488.913 40.4333 488.613 40.3 488.279 40.3H445.279C444.946 40.3 444.646 40.4333 444.379 40.7C444.179 40.9 444.079 41.1666 444.079 41.5V59.9C444.079 60.2333 444.179 60.5 444.379 60.7C444.646 60.9 444.946 61 445.279 61Z" fill="#4B6BFA"/>
<path d="M513.399 99V27H527.899L553.999 58.1L579.999 27H594.599V99H581.299V46.2L553.999 78.7L526.599 46.3V99H513.399Z" fill="#4B6BFA"/>
<path d="M606.372 99V40.9C606.372 38.3666 607.006 36.0666 608.272 34C609.539 31.8666 611.206 30.1666 613.272 28.9C615.406 27.6333 617.739 27 620.272 27H664.372C666.906 27 669.239 27.6333 671.372 28.9C673.506 30.1666 675.206 31.8666 676.472 34C677.739 36.0666 678.372 38.3666 678.372 40.9V99H665.072V74.8H619.572V99H606.372ZM619.572 61.6H665.072V41.5C665.072 41.1666 664.939 40.9 664.672 40.7C664.406 40.4333 664.106 40.3 663.772 40.3H620.772C620.439 40.3 620.139 40.4333 619.872 40.7C619.672 40.9 619.572 41.1666 619.572 41.5V61.6Z" fill="#4B6BFA"/>
<path d="M703.666 99C701.133 99 698.799 98.3666 696.666 97.1C694.599 95.8333 692.933 94.1666 691.666 92.1C690.399 89.9666 689.766 87.6333 689.766 85.1V40.9C689.766 38.3666 690.399 36.0666 691.666 34C692.933 31.8666 694.599 30.1666 696.666 28.9C698.799 27.6333 701.133 27 703.666 27H761.566V40.3H706.466C705.399 40.3 704.533 40.6 703.866 41.2C703.266 41.8 702.966 42.6666 702.966 43.8V82.2C702.966 83.2666 703.266 84.1333 703.866 84.8C704.533 85.4 705.399 85.7 706.466 85.7H761.566V99H703.666ZM718.066 114.1L722.866 97.5H736.166L731.466 114.1H718.066Z" fill="#4B6BFA"/>
<path d="M772.193 99V40.9C772.193 38.3666 772.826 36.0666 774.093 34C775.359 31.8666 777.026 30.1666 779.093 28.9C781.226 27.6333 783.559 27 786.093 27H830.193C832.726 27 835.059 27.6333 837.193 28.9C839.326 30.1666 841.026 31.8666 842.293 34C843.559 36.0666 844.193 38.3666 844.193 40.9V99H830.893V74.8H785.393V99H772.193ZM785.393 61.6H830.893V41.5C830.893 41.1666 830.759 40.9 830.493 40.7C830.226 40.4333 829.926 40.3 829.593 40.3H786.593C786.259 40.3 785.959 40.4333 785.693 40.7C785.493 40.9 785.393 41.1666 785.393 41.5V61.6ZM817.493 19.2C813.826 19.2 810.026 17.7666 806.093 14.9C802.293 12.1 799.059 10.7 796.393 10.7H789.993V0.599976H797.893C801.293 0.599976 804.793 2.06664 808.393 4.99997C811.993 7.93331 815.326 9.39998 818.393 9.39998H826.393V19.2H817.493Z" fill="#4B6BFA"/>
<path d="M869.286 99C866.753 99 864.42 98.3666 862.286 97.1C860.22 95.8333 858.553 94.1666 857.286 92.1C856.02 89.9666 855.386 87.6333 855.386 85.1V40.9C855.386 38.3666 856.02 36.0666 857.286 34C858.553 31.8666 860.22 30.1666 862.286 28.9C864.42 27.6333 866.753 27 869.286 27H913.486C916.02 27 918.32 27.6333 920.386 28.9C922.52 30.1666 924.22 31.8666 925.486 34C926.753 36.0666 927.386 38.3666 927.386 40.9V85.1C927.386 87.6333 926.753 89.9666 925.486 92.1C924.22 94.1666 922.52 95.8333 920.386 97.1C918.32 98.3666 916.02 99 913.486 99H869.286ZM869.786 85.7H912.786C913.12 85.7 913.42 85.6 913.686 85.4C913.953 85.1333 914.086 84.8333 914.086 84.5V41.5C914.086 41.1666 913.953 40.9 913.686 40.7C913.42 40.4333 913.12 40.3 912.786 40.3H869.786C869.453 40.3 869.153 40.4333 868.886 40.7C868.686 40.9 868.586 41.1666 868.586 41.5V84.5C868.586 84.8333 868.686 85.1333 868.886 85.4C869.153 85.6 869.453 85.7 869.786 85.7Z" fill="#4B6BFA"/>
<path d="M94.7701 123L47.6119 101.889V68.5555L20.6644 56.3333L94.7701 23L168.876 56.3333V100.778H155.402V62.4444L141.928 68.5555V101.889L94.7701 123ZM94.7701 76.8889L140.918 56.3333L94.7701 35.7778L48.6225 56.3333L94.7701 76.8889ZM94.7701 110.361L128.454 95.3611V74.3889L94.7701 89.6666L61.0857 74.3889V95.3611L94.7701 110.361Z" fill="#4B6BFA"/>
</g>
<defs>
<filter id="filter0_d_24_8" x="0.664429" y="0.599976" width="946.722" height="162.4" filterUnits="userSpaceOnUse" color-interpolation-filters="sRGB">
<feFlood flood-opacity="0" result="BackgroundImageFix"/>
<feColorMatrix in="SourceAlpha" type="matrix" values="0 0 0 0 0 0 0 0 0 0 0 0 0 0 0 0 0 0 127 0" result="hardAlpha"/>
<feOffset dy="20"/>
<feGaussianBlur stdDeviation="10"/>
<feComposite in2="hardAlpha" operator="out"/>
<feColorMatrix type="matrix" values="0 0 0 0 0 0 0 0 0 0 0 0 0 0 0 0 0 0 0.4 0"/>
<feBlend mode="normal" in2="BackgroundImageFix" result="effect1_dropShadow_24_8"/>
<feBlend mode="normal" in="SourceGraphic" in2="effect1_dropShadow_24_8" result="shape"/>
</filter>
</defs>
</svg>
