<svg width="101" height="28" viewBox="0 0 101 28" fill="none" xmlns="http://www.w3.org/2000/svg">
<g filter="url(#filter0_d_11_107)">
<path d="M4.45142 20V0H10.1831V6.66667H17.8253V0H23.557V20H17.8253V11.6667H10.1831V20H4.45142ZM34.065 20V5H27.3781V0H46.4837V5H39.7967V20H34.065ZM50.3048 20V3.33333C50.3048 2.38889 50.671 1.59722 51.4034 0.958333C52.1357 0.319444 53.0432 0 54.1259 0H71.3209C72.4036 0 73.3111 0.319444 74.0434 0.958333C74.7758 1.59722 75.142 2.38889 75.142 3.33333V20H69.4103V5H65.5892V16.6667H59.8576V5H56.0364V20H50.3048ZM80.8737 20V0H86.6054V15H96.1581V20H80.8737Z" fill="#F4600C"/>
</g>
<defs>
<filter id="filter0_d_11_107" x="0.451416" y="0" width="99.7068" height="28" filterUnits="userSpaceOnUse" color-interpolation-filters="sRGB">
<feFlood flood-opacity="0" result="BackgroundImageFix"/>
<feColorMatrix in="SourceAlpha" type="matrix" values="0 0 0 0 0 0 0 0 0 0 0 0 0 0 0 0 0 0 127 0" result="hardAlpha"/>
<feOffset dy="4"/>
<feGaussianBlur stdDeviation="2"/>
<feComposite in2="hardAlpha" operator="out"/>
<feColorMatrix type="matrix" values="0 0 0 0 0 0 0 0 0 0 0 0 0 0 0 0 0 0 0.25 0"/>
<feBlend mode="normal" in2="BackgroundImageFix" result="effect1_dropShadow_11_107"/>
<feBlend mode="normal" in="SourceGraphic" in2="effect1_dropShadow_11_107" result="shape"/>
</filter>
</defs>
</svg>
