<svg width="51" height="20" viewBox="0 0 51 20" fill="none" xmlns="http://www.w3.org/2000/svg">
<path d="M7.24786 20C5.35996 20 3.75524 19.5139 2.43371 18.5417C1.11218 17.5694 0.451416 16.3889 0.451416 15V11.6667H7.24786V15H14.0443V0H20.8408V15C20.8408 16.3889 20.18 17.5694 18.8585 18.5417C17.5369 19.5139 15.9322 20 14.0443 20H7.24786ZM32.1682 20C30.8844 20 29.8083 19.6806 28.9399 19.0417C28.0714 18.4028 27.6372 17.6111 27.6372 16.6667V13.3333H34.4337V15H43.4956V11.6667H32.1682C30.8844 11.6667 29.8083 11.3472 28.9399 10.7083C28.0714 10.0694 27.6372 9.27778 27.6372 8.33333V3.33333C27.6372 2.38889 28.0714 1.59722 28.9399 0.958333C29.8083 0.319444 30.8844 0 32.1682 0H45.7611C47.0448 0 48.1209 0.319444 48.9894 0.958333C49.8578 1.59722 50.292 2.38889 50.292 3.33333V6.66667H43.4956V5H34.4337V8.33333H45.7611C47.0448 8.33333 48.1209 8.65278 48.9894 9.29167C49.8578 9.93056 50.292 10.7222 50.292 11.6667V16.6667C50.292 17.6111 49.8578 18.4028 48.9894 19.0417C48.1209 19.6806 47.0448 20 45.7611 20H32.1682Z" fill="#F0DB4F"/>
</svg>
