<svg width="68" height="73" viewBox="0 0 68 73" fill="none" xmlns="http://www.w3.org/2000/svg">
<path d="M21.25 40.15H29.75V30.1125H38.25V40.15H46.75V22.8125L34 15.5125L21.25 22.8125V40.15ZM34 63.3275C42.6417 56.5142 49.0521 50.3244 53.2313 44.7581C57.4104 39.1919 59.5 34.2492 59.5 29.93C59.5 23.2992 57.0385 17.8698 52.1156 13.6419C47.1927 9.41396 41.1542 7.3 34 7.3C26.8458 7.3 20.8073 9.41396 15.8844 13.6419C10.9615 17.8698 8.5 23.2992 8.5 29.93C8.5 34.2492 10.5896 39.1919 14.7688 44.7581C18.9479 50.3244 25.3583 56.5142 34 63.3275ZM34 73C22.5958 64.6658 14.0781 56.9248 8.44688 49.7769C2.81563 42.629 0 36.0133 0 29.93C0 20.805 3.41771 13.5354 10.2531 8.12125C17.0885 2.70708 25.0042 0 34 0C42.9958 0 50.9115 2.70708 57.7469 8.12125C64.5823 13.5354 68 20.805 68 29.93C68 36.0133 65.1844 42.629 59.5531 49.7769C53.9219 56.9248 45.4042 64.6658 34 73Z" fill="#B3B3B3"/>
</svg>
