<svg width="293" height="73" viewBox="0 0 293 73" fill="none" xmlns="http://www.w3.org/2000/svg">
<g filter="url(#filter0_dd_24_3)">
<path d="M0.320007 29V0.200003H26.92V6.44H6.60001V11.48H22.96V17.72H6.60001V22.76H26.92V29H0.320007Z" fill="white"/>
<path d="M40.785 29C39.7183 29 38.7317 28.7333 37.825 28.2C36.9183 27.6667 36.1983 26.9467 35.665 26.04C35.1317 25.1333 34.865 24.1467 34.865 23.08V6.12C34.865 5.02667 35.1317 4.04 35.665 3.16C36.1983 2.25334 36.9183 1.53334 37.825 1C38.7317 0.46667 39.7183 0.200003 40.785 0.200003H57.705C58.7983 0.200003 59.785 0.46667 60.665 1C61.5717 1.53334 62.2917 2.25334 62.825 3.16C63.385 4.04 63.665 5.02667 63.665 6.12V8.84H57.385V6.44H41.065V22.76H57.385V18.44H51.145V12.2H63.665V23.08C63.665 24.1467 63.385 25.1333 62.825 26.04C62.2917 26.9467 61.5717 27.6667 60.665 28.2C59.785 28.7333 58.7983 29 57.705 29H40.785Z" fill="white"/>
<path d="M72.0681 29V0.200003H78.4681L94.5881 19.4V0.200003H100.868V29H94.4681L78.2681 9.72V29H72.0681Z" fill="white"/>
<path d="M109.429 29V6.12C109.429 5.02667 109.696 4.04 110.229 3.16C110.763 2.25334 111.483 1.53334 112.389 1C113.296 0.46667 114.283 0.200003 115.349 0.200003H132.269C133.363 0.200003 134.349 0.46667 135.229 1C136.136 1.53334 136.856 2.25334 137.389 3.16C137.949 4.04 138.229 5.02667 138.229 6.12V29H131.949V19.72H115.629V29H109.429ZM115.629 13.48H131.949V6.44H115.629V13.48Z" fill="white"/>
<path d="M146.827 29V0.160004H153.027V22.76H175.627V29H146.827Z" fill="white"/>
<path d="M182.039 29V0.200003H204.879C205.972 0.200003 206.959 0.46667 207.839 1C208.745 1.53334 209.465 2.25334 209.999 3.16C210.559 4.04 210.839 5.02667 210.839 6.12V23.08C210.839 24.1467 210.559 25.1333 209.999 26.04C209.465 26.9467 208.745 27.6667 207.839 28.2C206.959 28.7333 205.972 29 204.879 29H182.039ZM188.199 22.76H204.559V6.44H188.199V22.76Z" fill="white"/>
<path d="M225.158 29C224.091 29 223.105 28.7333 222.198 28.2C221.291 27.6667 220.571 26.9467 220.038 26.04C219.505 25.1333 219.238 24.1467 219.238 23.08V6.12C219.238 5.02667 219.505 4.04 220.038 3.16C220.571 2.25334 221.291 1.53334 222.198 1C223.105 0.46667 224.091 0.200003 225.158 0.200003H242.118C243.185 0.200003 244.158 0.46667 245.038 1C245.945 1.53334 246.665 2.25334 247.198 3.16C247.758 4.04 248.038 5.02667 248.038 6.12V23.08C248.038 24.1467 247.758 25.1333 247.198 26.04C246.665 26.9467 245.945 27.6667 245.038 28.2C244.158 28.7333 243.185 29 242.118 29H225.158ZM225.438 22.76H241.758V6.44H225.438V22.76Z" fill="white"/>
</g>
<defs>
<filter id="filter0_dd_24_3" x="0.320007" y="0.160004" width="291.718" height="72.84" filterUnits="userSpaceOnUse" color-interpolation-filters="sRGB">
<feFlood flood-opacity="0" result="BackgroundImageFix"/>
<feColorMatrix in="SourceAlpha" type="matrix" values="0 0 0 0 0 0 0 0 0 0 0 0 0 0 0 0 0 0 127 0" result="hardAlpha"/>
<feOffset dx="40" dy="40"/>
<feGaussianBlur stdDeviation="2"/>
<feComposite in2="hardAlpha" operator="out"/>
<feColorMatrix type="matrix" values="0 0 0 0 0 0 0 0 0 0.180392 0 0 0 0 0.678431 0 0 0 1 0"/>
<feBlend mode="normal" in2="BackgroundImageFix" result="effect1_dropShadow_24_3"/>
<feColorMatrix in="SourceAlpha" type="matrix" values="0 0 0 0 0 0 0 0 0 0 0 0 0 0 0 0 0 0 127 0" result="hardAlpha"/>
<feOffset dx="20" dy="20"/>
<feGaussianBlur stdDeviation="1"/>
<feComposite in2="hardAlpha" operator="out"/>
<feColorMatrix type="matrix" values="0 0 0 0 0.262745 0 0 0 0 0.376471 0 0 0 0 0.882353 0 0 0 1 0"/>
<feBlend mode="normal" in2="effect1_dropShadow_24_3" result="effect2_dropShadow_24_3"/>
<feBlend mode="normal" in="SourceGraphic" in2="effect2_dropShadow_24_3" result="shape"/>
</filter>
</defs>
</svg>
